# xmcd
#
# Track frame offsets:
#	150
#	10005
#	27445
#	71095
#	92515
#	125055
#	141180
#
# Disc length: 2222 seconds
#
# Revision: 2
# Processed by: cddbd v1.5.1PL2 Copyright (c) Steve Scherf et al.
# Submitted via: EasyCDDAExtractor 8.0.2.1
#
DISCID=5b08ac07
DTITLE=Black Sabbath - Broome County Veterans Memorial Arena Binghampton 23-05
DTITLE=82 Disc 2
DYEAR=1982
DGENRE=Hard Rock
TTITLE0=Iron Man
TTITLE1=The Mob Rules
TTITLE2=Heaven and Hell
TTITLE3=Guitar Solo
TTITLE4=Heaven and Hell Reprise
TTITLE5=Paranoid
TTITLE6=Children Of The Grave
EXTD=
EXTT0=
EXTT1=
EXTT2=
EXTT3=
EXTT4=
EXTT5=
EXTT6=
PLAYORDER=
